<?xml version="1.0" standalone="no"?>
<!DOCTYPE svg PUBLIC "-//W3C//DTD SVG 20010904//EN"
 "http://www.w3.org/TR/2001/REC-SVG-20010904/DTD/svg10.dtd">
<svg version="1.0" xmlns="http://www.w3.org/2000/svg"
 width="512.000000pt" height="512.000000pt" viewBox="0 0 512.000000 512.000000"
 preserveAspectRatio="xMidYMid meet">
<metadata>
Created by potrace 1.16, written by Peter Selinger 2001-2019
</metadata>
<g transform="translate(0.000000,512.000000) scale(0.100000,-0.100000)"
fill="#000000" stroke="none">
<path d="M1443 4687 c-21 -19 -252 -219 -513 -446 -261 -227 -487 -426 -502
-442 l-28 -29 0 -1665 c0 -1652 0 -1665 20 -1685 20 -20 33 -20 1100 -20 1067
0 1080 0 1100 20 18 18 20 33 20 180 l0 160 479 0 479 0 4 -129 c3 -143 11
-163 78 -209 33 -22 36 -22 405 -22 369 0 372 0 405 23 61 41 75 77 79 214 l3
123 54 0 c41 0 59 5 74 20 19 19 20 33 20 453 0 494 -3 518 -82 677 -34 68
-60 103 -133 175 -102 102 -173 148 -290 187 l-80 27 -7 58 c-36 323 -266 629
-568 760 -151 65 -211 75 -465 80 -224 5 -231 4 -257 -17 -36 -28 -38 -77 -4
-117 l24 -28 234 -6 c169 -5 248 -11 289 -23 305 -87 532 -344 584 -658 l6
-38 -666 0 -665 0 0 730 0 730 -27 29 c-16 16 -170 152 -343 303 -173 151
-404 351 -513 446 -184 161 -200 172 -237 172 -31 0 -48 -7 -77 -33z m567
-587 l470 -411 0 -1565 0 -1564 -960 0 -960 0 0 1564 0 1565 476 416 c272 237
482 414 490 411 7 -3 225 -190 484 -416z m2150 -1982 c148 -54 267 -158 335
-292 59 -118 65 -167 65 -558 l0 -348 -960 0 -960 0 0 615 0 616 723 -3 722
-3 75 -27z m240 -1458 l0 -100 -315 0 -315 0 0 100 0 100 315 0 315 0 0 -100z"/>
<path d="M1435 3987 c-62 -21 -97 -42 -137 -84 -58 -59 -83 -124 -82 -213 0
-92 26 -158 87 -218 63 -61 126 -87 217 -87 91 0 154 26 217 87 61 60 87 126
87 218 0 128 -66 231 -178 281 -61 26 -157 34 -211 16z m162 -177 c87 -52 83
-198 -6 -245 -98 -50 -211 16 -211 123 0 85 56 142 140 142 27 0 58 -8 77 -20z"/>
<path d="M1483 2700 c-33 -14 -43 -42 -43 -123 l0 -74 -97 -5 c-173 -9 -280
-73 -345 -206 -30 -60 -33 -75 -33 -152 1 -71 5 -95 29 -146 35 -77 103 -145
181 -180 49 -23 78 -28 162 -32 l103 -5 0 -183 0 -183 -216 -3 -216 -3 -24
-28 c-31 -37 -31 -81 1 -112 24 -25 24 -25 240 -25 l215 0 0 -83 c0 -74 3 -86
23 -105 32 -30 87 -29 115 1 19 20 22 35 22 104 l0 81 113 4 c105 3 116 6 175
38 235 126 256 455 38 605 -70 48 -132 65 -238 65 l-88 0 0 190 0 190 214 0
c240 0 251 3 262 71 5 29 1 41 -19 65 l-25 29 -216 3 -216 3 0 78 c0 60 -4 84
-17 100 -21 24 -68 35 -100 21z m-43 -560 l0 -190 -75 0 c-115 0 -179 34 -216
115 -45 98 4 214 108 250 21 8 71 14 111 15 l72 0 0 -190z m366 -380 c24 -12
54 -39 70 -62 24 -35 29 -51 29 -103 0 -50 -5 -69 -28 -103 -40 -62 -88 -82
-192 -82 l-85 0 0 185 0 185 82 0 c62 0 92 -5 124 -20z"/>
<path d="M3870 1859 c-106 -21 -217 -104 -264 -198 -97 -191 -21 -418 172
-513 62 -31 74 -33 167 -33 90 0 106 3 160 29 76 38 143 105 181 181 26 54 29
70 29 160 0 93 -2 105 -33 167 -53 109 -155 186 -274 208 -58 11 -76 11 -138
-1z m141 -171 c72 -24 128 -89 144 -166 19 -92 -51 -206 -146 -237 -204 -68
-368 180 -226 342 57 65 148 89 228 61z"/>
</g>
</svg>
