<?xml version="1.0" standalone="no"?>
<!DOCTYPE svg PUBLIC "-//W3C//DTD SVG 20010904//EN"
 "http://www.w3.org/TR/2001/REC-SVG-20010904/DTD/svg10.dtd">
<svg version="1.0" xmlns="http://www.w3.org/2000/svg"
 width="367.000000pt" height="367.000000pt" viewBox="0 0 367.000000 367.000000"
 preserveAspectRatio="xMidYMid meet">

<g transform="translate(0.000000,367.000000) scale(0.100000,-0.100000)"
fill="#000000" stroke="none">
<path d="M1666 2690 c-161 -16 -249 -63 -327 -176 l-30 -44 69 0 c61 0 71 3
93 26 69 74 159 87 562 82 330 -5 361 -10 420 -66 41 -39 98 -124 146 -220 33
-66 61 -102 130 -171 126 -125 122 -111 119 -476 l-3 -300 -57 -3 -58 -3 0
-54 0 -55 115 0 116 0 -3 393 -3 392 -29 50 c-16 28 -66 88 -111 135 -61 63
-94 109 -129 176 -59 113 -133 213 -183 246 -55 38 -123 58 -232 68 -111 11
-489 11 -605 0z"/>
<path d="M1297 2349 c-121 -16 -175 -41 -242 -112 -33 -34 -78 -93 -99 -131
-36 -62 -42 -67 -65 -61 -14 4 -81 9 -148 12 l-123 5 0 -54 0 -55 111 -6 c61
-3 113 -8 116 -11 3 -3 -30 -43 -74 -90 -129 -138 -122 -105 -123 -561 l-2
-390 226 -3 226 -2 0 50 0 51 133 -8 c171 -9 668 -9 820 1 l117 7 0 -50 0 -51
225 0 226 0 -3 393 c-3 459 5 423 -126 559 -49 50 -79 89 -72 93 6 3 60 9 120
12 l110 6 0 55 0 54 -127 -5 c-71 -3 -139 -8 -153 -12 -22 -5 -28 0 -53 48
-40 78 -115 167 -167 199 -88 54 -136 60 -475 64 -170 1 -340 -2 -378 -7z
m614 -113 c108 -4 171 -26 215 -73 26 -26 124 -172 124 -183 0 -3 -277 -5
-615 -5 -543 0 -615 2 -610 15 13 33 72 125 108 165 55 64 106 78 307 85 163
5 283 4 471 -4z m414 -397 c33 -19 145 -132 145 -147 0 -14 -76 -29 -214 -43
l-116 -12 0 -58 0 -58 38 4 c20 2 82 9 137 15 55 6 118 15 139 20 22 5 43 7
47 4 4 -2 7 -129 6 -282 l-2 -277 -110 1 -110 1 -3 56 -3 55 -37 -5 c-176 -21
-691 -28 -1002 -13 -118 6 -224 12 -235 13 -18 2 -20 -5 -23 -54 l-3 -57 -109
2 -110 1 0 283 c0 155 2 282 4 282 3 0 35 -6 73 -14 37 -8 106 -17 153 -21 47
-3 97 -8 113 -11 l27 -6 0 61 c0 61 0 61 -29 61 -43 0 -271 31 -295 40 -19 7
-14 14 55 85 65 67 83 79 120 86 24 4 330 6 679 5 569 -1 638 -3 665 -17z"/>
<path d="M1272 1667 l-32 -33 0 -122 0 -121 51 -81 51 -80 128 0 c101 0 130 3
140 15 7 8 18 15 25 15 7 0 18 -7 25 -15 10 -12 39 -15 140 -15 l127 0 52 84
51 83 0 115 0 114 -38 37 -38 37 -127 0 c-98 0 -135 -4 -159 -16 -29 -15 -34
-15 -65 0 -26 12 -65 16 -166 16 l-133 0 -32 -33z m284 -91 c17 -12 20 -27 23
-105 3 -118 -6 -128 -105 -125 l-69 2 -27 43 c-24 37 -28 54 -28 114 0 40 3
75 7 78 13 14 178 7 199 -7z m354 -72 c0 -72 -3 -91 -22 -117 -12 -18 -27 -35
-32 -39 -14 -9 -138 2 -153 15 -9 6 -13 41 -13 107 0 117 1 118 133 119 l87 1
0 -86z"/>
</g>
</svg>
