<?xml version="1.0" standalone="no"?>
<!DOCTYPE svg PUBLIC "-//W3C//DTD SVG 20010904//EN"
 "http://www.w3.org/TR/2001/REC-SVG-20010904/DTD/svg10.dtd">
<svg version="1.0" xmlns="http://www.w3.org/2000/svg"
 width="367.000000pt" height="367.000000pt" viewBox="0 0 367.000000 367.000000"
 preserveAspectRatio="xMidYMid meet">
<metadata>
Created by potrace 1.16, written by Peter Selinger 2001-2019
</metadata>
<g transform="translate(0.000000,367.000000) scale(0.100000,-0.100000)"
fill="#000000" stroke="none">
<path d="M2770 2795 l0 -135 -140 0 -140 0 0 -60 0 -59 138 -3 137 -3 3 -137
3 -138 59 0 60 0 0 140 0 140 135 0 135 0 0 60 0 60 -135 0 -135 0 0 135 0
135 -60 0 -60 0 0 -135z"/>
<path d="M1455 2309 c-99 -14 -176 -59 -237 -137 -29 -37 -64 -89 -78 -115
-22 -42 -28 -47 -50 -42 -35 8 -246 19 -262 13 -9 -4 -12 -22 -10 -60 l4 -55
104 -5 c57 -3 107 -8 110 -11 4 -4 -29 -44 -73 -91 -126 -133 -118 -96 -118
-551 l0 -390 228 -3 227 -2 0 47 0 48 525 0 525 0 0 -47 0 -48 225 0 225 0 0
390 0 391 -24 48 c-14 26 -59 84 -100 128 l-76 80 47 7 c25 3 77 6 114 6 l69
0 0 61 0 61 -122 -5 c-68 -3 -135 -8 -149 -12 -23 -6 -29 -1 -64 59 -88 151
-174 216 -313 236 -82 12 -644 11 -727 -1z m752 -133 c29 -9 67 -29 84 -44 29
-24 129 -165 129 -181 0 -3 -268 -6 -595 -6 -394 0 -595 3 -595 10 0 16 84
138 119 173 63 62 129 71 506 68 249 -2 309 -6 352 -20z m253 -366 c50 -9 62
-17 124 -80 38 -39 67 -72 65 -74 -6 -6 -184 -34 -261 -41 l-68 -7 0 -60 0
-61 88 7 c83 7 186 20 245 32 l27 6 0 -276 0 -276 -105 0 -105 0 0 56 0 55
-157 -8 c-204 -10 -785 -10 -980 0 l-152 8 -3 -53 -3 -53 -105 0 -105 0 -3
273 c-1 149 1 272 5 272 5 0 44 -7 88 -14 44 -8 124 -18 178 -22 l97 -7 0 61
0 60 -67 7 c-86 8 -256 34 -261 40 -8 7 122 137 148 148 14 5 90 13 170 16
230 9 1078 3 1140 -9z"/>
<path d="M1462 1637 l-32 -33 0 -144 0 -145 50 -77 49 -78 134 0 c108 0 137 3
147 15 12 14 15 14 30 0 14 -13 41 -15 150 -13 l133 3 48 75 48 75 0 140 0
140 -35 38 -35 38 -147 -5 c-179 -6 -173 -6 -357 0 l-150 5 -33 -34z m286 -99
c17 -17 17 -229 0 -246 -7 -7 -40 -12 -80 -12 l-67 0 -26 43 c-21 38 -25 56
-25 129 0 46 3 88 7 91 12 12 178 8 191 -5z m350 -81 c3 -82 1 -92 -25 -133
l-28 -44 -64 0 c-95 0 -101 8 -101 141 0 92 3 110 18 118 9 6 58 10 107 8 l90
-2 3 -88z"/>
</g>
</svg>
