<?xml version="1.0" standalone="no"?>
<!DOCTYPE svg PUBLIC "-//W3C//DTD SVG 20010904//EN"
 "http://www.w3.org/TR/2001/REC-SVG-20010904/DTD/svg10.dtd">
<svg version="1.0" xmlns="http://www.w3.org/2000/svg"
 width="367.000000pt" height="367.000000pt" viewBox="0 0 367.000000 367.000000"
 preserveAspectRatio="xMidYMid meet">
<metadata>
Created by potrace 1.16, written by Peter Selinger 2001-2019
</metadata>
<g transform="translate(0.000000,367.000000) scale(0.100000,-0.100000)"
fill="#000000" stroke="none">
<path d="M2339 2819 c-247 -36 -399 -229 -399 -504 0 -279 156 -470 415 -506
138 -19 305 9 387 65 l36 24 118 -119 c65 -66 124 -119 130 -119 12 0 84 67
84 78 0 4 -54 61 -120 127 l-120 121 29 55 c17 30 37 81 46 114 20 77 20 243
0 320 -67 255 -302 389 -606 344z m202 -123 c131 -28 215 -91 266 -201 26 -55
28 -69 28 -180 0 -111 -2 -125 -29 -183 -70 -151 -239 -232 -426 -203 -140 22
-245 100 -291 219 -33 82 -33 252 -1 333 54 135 190 221 362 228 14 0 55 -6
91 -13z"/>
<path d="M1364 2315 c-120 -26 -178 -74 -268 -217 -45 -73 -49 -76 -73 -67
-14 5 -79 12 -145 16 l-119 6 3 -62 3 -61 102 -4 c55 -2 105 -6 110 -9 5 -3
-25 -41 -67 -85 -126 -132 -120 -104 -120 -551 l0 -381 225 0 225 0 0 50 0 50
42 -6 c48 -8 695 -11 868 -5 l115 5 3 -47 3 -47 225 0 224 0 0 368 c0 202 -4
372 -8 379 -5 9 -23 7 -72 -5 -59 -15 -233 -19 -360 -10 l-35 3 -3 -62 -3 -62
68 5 c37 3 113 12 167 20 55 8 106 14 113 14 11 0 13 -48 11 -262 l-3 -263
-102 -3 -102 -3 -3 53 -3 52 -45 -2 c-25 -1 -119 -7 -210 -12 -273 -16 -853
-7 -982 15 -26 4 -27 3 -30 -48 l-3 -52 -102 -3 -103 -3 0 266 c0 146 4 265 8
265 5 0 53 -6 108 -14 54 -8 130 -17 167 -20 l68 -5 -3 62 -3 62 -40 2 c-97 6
-265 36 -265 47 0 6 28 39 63 73 48 48 72 64 107 72 26 6 198 11 413 11 206 0
367 4 367 9 0 5 -15 32 -32 60 l-33 51 -332 0 c-231 0 -333 3 -333 11 0 17 84
141 116 171 53 50 102 61 297 66 l177 4 0 59 0 59 -167 -1 c-99 0 -193 -6
-229 -14z"/>
<path d="M1401 1660 l-41 -40 0 -113 0 -112 52 -83 51 -82 132 0 c107 0 135 3
145 15 12 14 15 14 30 0 13 -12 44 -15 146 -15 l129 0 48 78 47 78 0 120 0
120 -38 37 -38 37 -122 0 c-94 0 -129 -4 -157 -17 -35 -17 -38 -17 -67 0 -24
14 -54 17 -153 17 l-123 0 -41 -40z m264 -92 c24 -11 25 -14 25 -103 0 -57 -4
-95 -12 -103 -7 -7 -40 -12 -77 -12 -65 0 -66 1 -90 38 -26 39 -39 120 -27
167 6 24 9 25 81 25 41 0 86 -5 100 -12z m353 -65 c2 -63 0 -77 -23 -113 l-25
-40 -70 0 c-85 0 -90 7 -90 118 0 104 9 111 135 109 l70 -2 3 -72z"/>
</g>
</svg>
